<?xml version="1.0" encoding="UTF-8"?>
<svg
   width="512"
   height="512"
   viewBox="108 20 48 48"
   version="1.1"
   xmlns="http://www.w3.org/2000/svg">
  <g>
    <path
       style="fill:#7bd09e;stroke:#7bd09e;"
       d="m 133.68033,28.924306 c -0.21297,0.0023 -0.42806,0.05022 -0.61081,0.143661 -0.26295,0.13442 -1.16961,0.859592 -3.04478,2.43551 -0.56886,0.47808 -3.22194,2.679373 -7.9468,6.592879 -1.99205,1.649969 -2.12855,1.796416 -2.12855,2.287716 0,0.451459 0.19348,0.714346 0.59479,0.808736 0.41556,0.0977 25.78073,0.101794 26.20202,0.0041 0.41533,-0.0962 0.63511,-0.350586 0.63511,-0.735355 0,-0.44744 -0.18236,-0.709865 -0.94672,-1.360124 -2.72737,-2.320268 -11.94223,-9.935415 -12.15688,-10.046415 -0.17338,-0.08966 -0.3844,-0.132997 -0.59738,-0.130742 z m -10.85773,12.862781 0.0238,4.677751 c 0.0229,4.484725 0.0309,4.691614 0.19327,5.011063 0.22592,0.44455 0.4972,0.62685 1.07177,0.72037 0.26302,0.0428 1.78697,0.175742 3.38635,0.295072 1.59939,0.11933 3.32733,0.252169 3.83956,0.295589 0.91253,0.0774 2.98873,0.05264 4.3031,-0.05116 v 5.17e-4 c 1.01157,-0.0799 0.93829,0.244879 0.98857,-4.368726 0.0406,-3.721216 0.0492,-3.889377 0.20671,-4.004407 0.12873,-0.094 0.52667,-0.120406 1.83658,-0.120406 1.63219,0 1.67538,0.0049 1.80402,0.188102 0.11463,0.16365 0.13178,0.693455 0.13178,4.064352 v 3.875732 l 0.40204,-0.0052 c 0.22119,-0.003 0.90856,-0.05341 1.52755,-0.113172 1.23598,-0.11927 1.43946,-0.20497 1.75339,-0.737939 0.16304,-0.27681 0.17027,-0.462541 0.19327,-5.007447 l 0.0238,-4.720125 h -10.84275 z m 5.903,2.198832 c 1.32964,-0.0012 1.21439,0.122186 1.21439,2.169894 0,2.261807 0.0552,2.157566 -1.12654,2.134236 -0.47467,-0.009 -1.1671,-0.03041 -1.53893,-0.04651 -0.54765,-0.0237 -0.7128,-0.06331 -0.86816,-0.209289 -0.18736,-0.17602 -0.19172,-0.220972 -0.19172,-1.943551 0,-1.650348 0.011,-1.774208 0.1695,-1.932698 0.15666,-0.15667 0.2821,-0.168982 1.67845,-0.168982 0.25346,0 0.47306,-0.0029 0.66301,-0.0031 z" />
    <path
       style="fill:#45ac70;stroke-width:0.0846667"
       d="m 117.66347,59.588501 c -0.47065,-0.24011 -0.68297,-0.60459 -0.68337,-1.17314 -2.4e-4,-0.35022 0.11999,-0.764 0.54123,-1.86267 0.94337,-2.460425 1.00349,-2.675535 0.96266,-3.444425 -0.0412,-0.776 -0.16059,-1.05376 -1.02641,-2.38799 -1.30533,-2.0115 -2.11796,-4.18243 -2.37048,-6.33268 -0.68085,-2.87414 0.27525,-6.26224 1.45055,-8.647 3.56348,-6.510079 13.13881,-11.051865 19.40744,-9.79722 6.76793,1.157667 11.03716,3.6735 14.02182,8.29421 2.54526,4.63799 3.08703,7.8616 1.8423,12.2912 -0.80318,2.79098 -2.24679,5.08487 -4.63083,7.35836 -2.27835,2.172705 -5.25995,3.775575 -8.52394,4.582375 -1.71413,0.42369 -2.86272,0.55387 -4.86834,0.55177 -2.38921,-0.003 -3.86444,-0.2174 -6.43466,-0.93733 -1.88862,-0.52901 -1.95543,-0.51953 -6.13834,0.87048 -2.25397,0.36548 -1.82428,1.12523 -3.54963,0.63406 z m 17.97052,-6.834325 c 1.01157,-0.0799 0.93818,0.24448 0.98846,-4.36913 0.0406,-3.72122 0.0492,-3.88935 0.20669,-4.00438 0.12873,-0.094 0.52678,-0.12007 1.83669,-0.12007 1.63219,0 1.67552,0.005 1.80416,0.18818 0.11463,0.16365 0.1318,0.6931 0.1318,4.064 v 3.87582 l 0.40217,-0.005 c 0.22119,-0.003 0.90861,-0.0534 1.5276,-0.11316 1.23598,-0.11927 1.4393,-0.20484 1.75323,-0.73781 0.16305,-0.27681 0.17022,-0.46274 0.19322,-5.00765 l 0.0239,-4.72016 H 133.6591 122.81631 l 0.0239,4.67783 c 0.0229,4.48473 0.0309,4.69158 0.19324,5.01103 0.22592,0.44455 0.49724,0.62692 1.07181,0.72044 0.26302,0.0428 1.78682,0.17547 3.38621,0.2948 1.59939,0.11933 3.32708,0.2525 3.83931,0.29592 0.91253,0.0774 2.98884,0.0527 4.30321,-0.0511 z m -8.36592,-4.49287 c -0.54765,-0.0237 -0.71247,-0.0634 -0.86783,-0.20938 -0.18736,-0.17602 -0.19179,-0.22084 -0.19179,-1.94342 0,-1.65035 0.0108,-1.77408 0.16934,-1.93257 0.15666,-0.15667 0.28222,-0.16933 1.67857,-0.16933 2.02772,0 1.87743,-0.17346 1.87743,2.16678 0,2.26181 0.0551,2.15751 -1.12664,2.13418 -0.47467,-0.009 -1.16725,-0.0302 -1.53908,-0.0463 z m 19.47206,-7.04654 c 0.41533,-0.0962 0.635,-0.35064 0.635,-0.73541 0,-0.44744 -0.18265,-0.70975 -0.94701,-1.36001 -2.72738,-2.32027 -11.94225,-9.93536 -12.1569,-10.04636 -0.34676,-0.17932 -0.84253,-0.17408 -1.20803,0.0128 -0.26295,0.13442 -1.16957,0.85966 -3.04474,2.43558 -0.56886,0.47808 -3.22199,2.67907 -7.94685,6.59258 -1.99205,1.64997 -2.12848,1.79662 -2.12848,2.28792 0,0.45146 0.19339,0.71449 0.5947,0.80888 0.41556,0.0977 25.78102,0.10166 26.20231,0.004 z" />
  </g>
</svg>
